<svg id="Layer_1" data-name="Layer 1" xmlns="http://www.w3.org/2000/svg" viewBox="0 0 120.41 20"><defs><style>.cls-1{fill:#0f0f0e;stroke-width:0}</style></defs><g id="workflow-logo"><path class="cls-1" d="m27.76 4.53-.09-1.39h-5.8l-.09 1.39 1.93.48-3.56 9.49-3.91-9.49L18 4.53l-.09-1.39h-7.33l-.09 1.39 1.42.48.76 1.74-2.96 7.53-3.8-9.27 1.42-.48-.09-1.39H.11L0 4.53l1.47.48 6.38 14.84h1.5l4.44-10.48 4.56 10.48h1.53l6.4-14.84 1.47-.48ZM35.87 7.92c-.96-.54-2.06-.81-3.32-.81-1.17 0-2.27.26-3.32.77-1.04.51-1.88 1.25-2.51 2.24-.63.98-.95 2.16-.95 3.54 0 1.23.28 2.32.83 3.29.56.96 1.34 1.71 2.33 2.25 1 .54 2.15.81 3.45.81 1.21 0 2.3-.29 3.29-.88.98-.59 1.76-1.37 2.33-2.36.58-.99.86-2.11.86-3.35s-.26-2.33-.8-3.27c-.53-.94-1.28-1.67-2.24-2.21h.02Zm-1.16 8.47c-.17.59-.43 1.05-.77 1.36-.34.31-.74.47-1.22.47-.56 0-1.07-.23-1.52-.71s-.8-1.11-1.07-1.93c-.26-.81-.4-1.72-.4-2.72 0-1.25.22-2.24.65-2.96.44-.73 1-1.09 1.7-1.09.87 0 1.56.5 2.08 1.52.52 1.01.78 2.33.78 3.98 0 .8-.08 1.49-.26 2.08ZM50.11 7.62c-.38-.29-.82-.43-1.33-.43-.61 0-1.19.19-1.74.56-.56.38-1.1 1.1-1.63 2.18l-.08-.03.11-2.3-.77-.45-4.9 1.28v1.28l1.82.4c.1.49.16.96.2 1.4.04.44.06.94.06 1.49l-.03 2.15c0 .45-.02.89-.05 1.29-.03.41-.05.74-.07 1.02-.02.28-.04.46-.06.56l-1.76.45.08 1.31h8.08l.08-1.31-2.45-.45c-.02-.14-.05-.41-.06-.77-.02-.36-.03-.82-.05-1.37s-.02-1.19-.05-1.88l-.03-2.24c.21-.4.44-.76.69-1.09.14-.18.29-.35.45-.49.27.21.52.38.76.47.36.15.77.23 1.22.23.55 0 1.03-.17 1.44-.51.41-.34.62-.81.62-1.42s-.19-1.05-.56-1.33Z"/><path class="cls-1" d="M64.63 17.62c-.28-.29-.59-.63-.95-1.05l-3.82-4.35L63.73 9l1.87-.34-.08-1.33h-6.29l-.08 1.33 1.87.32-4.17 3.96-.5.1.02-4.23c0-1.11 0-2.08.02-2.89 0-.81.02-1.52.03-2.12 0-.61.03-1.17.06-1.7s.06-1.06.1-1.58l-.8-.48-5.35 1.39.06 1.22 2.09.29c.04.3.06.69.07 1.18 0 .48.02 1.01.03 1.6 0 .59.02 1.2.03 1.85 0 .65.02 1.32.02 2v3.62c0 .61 0 1.23-.02 1.87-.02.64-.03 1.24-.06 1.79s-.07.95-.13 1.19l-1.61.45.11 1.31h7.08l.11-1.31-1.76-.45c-.02-.11-.03-.32-.05-.59 0-.29-.02-.62-.05-1.01-.02-.39-.03-.79-.03-1.2v-1.02h.32l3.32 3.71c.25.26.49.54.72.83.23.29.5.64.78 1.04h4.76l.11-1.31-1.1-.23c-.14-.14-.34-.34-.61-.62ZM82.01 16.32c-.02-.92-.04-2.04-.04-3.34L82 8.81c.02-1.36.02-2.51.02-3.45s.02-1.79.05-2.54.06-1.52.1-2.31l-.79-.48-2.1.79C78.62.44 77.52 0 75.69 0c-1.98 0-3.18.53-3.99 1.09s-1.46 1.32-1.93 2.3-.71 2.09-.71 3.32v.6l-2.04.57v1.3h2.04l.03 3.51v3.4c0 .36 0 .68-.02.98-.02.29-.03.61-.05.95l-1.76.45.08 1.31h7.79l.09-1.28-2.33-.48c-.04-.7-.08-1.54-.11-2.51-.04-.98-.06-1.94-.06-2.9l-.02-3.43h2.97V7.39h-3.03V5.46c0-1.28 0-2.35.44-2.93.5-.65 1.11-1.02 2.33-1.02s2.66.98 2.72 1.91c.02.38.03.59.05.95.03.49.05 1.02.06 1.61 0 .59.02.96.02 1.62.02.66.02 1.31.02 1.95v3.57c0 .64-.02 1.3-.04 1.97-.03.67-.05 1.27-.08 1.8-.02.53-.05.91-.08 1.13l-1.84.48.11 1.28h7.53l.05-1.28-1.84-.48c-.04-.21-.08-.77-.11-1.7ZM94.24 7.92c-.96-.54-2.06-.81-3.32-.81-1.17 0-2.27.26-3.32.77-1.04.51-1.88 1.25-2.51 2.24-.63.98-.95 2.16-.95 3.54 0 1.23.28 2.32.83 3.29.56.96 1.34 1.71 2.33 2.25 1 .54 2.15.81 3.45.81 1.21 0 2.3-.29 3.29-.88.98-.59 1.76-1.37 2.33-2.36.58-.99.86-2.11.86-3.35s-.26-2.33-.8-3.27c-.53-.94-1.28-1.67-2.24-2.21h.02Zm-1.17 8.47c-.17.59-.43 1.05-.77 1.36s-.74.47-1.22.47c-.56 0-1.07-.23-1.52-.71-.44-.47-.8-1.11-1.07-1.93-.26-.81-.4-1.72-.4-2.72 0-1.25.22-2.24.65-2.96.44-.73 1-1.09 1.7-1.09.87 0 1.56.5 2.08 1.52.52 1.01.78 2.33.78 3.98 0 .8-.08 1.49-.26 2.08ZM120.35 7.34h-4.84l-.06 1.3 1.47.46-2.65 6.08-2.53-6.08 1.47-.46-.05-1.3h-6.86l-.11 1.3 1.36.46.32.69-2.48 5.31-2.64-6 1.36-.46-.09-1.3H97.2l-.09 1.3 1.34.46 5.04 10.79h1.22l4.11-8.04 3.62 8.04h1.25L119.1 9.1l1.34-.46-.06-1.3Z"/></g></svg>